<svg xmlns="http://www.w3.org/2000/svg" width="16.032" height="20" viewBox="0 0 16.032 20"><defs><style>.a{fill:red;}</style></defs><g transform="translate(-19.452 -11.893)"><path class="a" d="M33.676,14.164H31l-.1-1,0-.029a1.474,1.474,0,0,0-1.467-1.244H25.507a1.475,1.475,0,0,0-1.468,1.244l-.1,1.027H21.259a1.81,1.81,0,0,0-1.807,1.807V17.1A1.81,1.81,0,0,0,20.9,18.875l1.05,11.18,0,.027a2.1,2.1,0,0,0,2.071,1.811h6.883a2.1,2.1,0,0,0,2.071-1.811l0-.013,1.052-11.193A1.811,1.811,0,0,0,35.484,17.1V15.972A1.811,1.811,0,0,0,33.676,14.164Zm-8.3-.843a.129.129,0,0,1,.129-.077H29.43a.129.129,0,0,1,.128.077l.082.843H25.295ZM31.64,29.912a.741.741,0,0,1-.73.629H24.027a.74.74,0,0,1-.73-.629l-1.034-11H32.674ZM34.132,17.1a.456.456,0,0,1-.456.456H21.261A.456.456,0,0,1,20.8,17.1V15.971a.456.456,0,0,1,.456-.456H33.677a.455.455,0,0,1,.456.456V17.1Z"/></g></svg>
